<svg width="870" height="870" viewBox="0 0 870 870" fill="none" xmlns="http://www.w3.org/2000/svg">
<g clip-path="url(#clip0_27_2)">
<rect width="870" height="870" fill="white"/>
<circle cx="123.5" cy="876.5" r="540.5" stroke="#7B7B7B" stroke-width="6"/>
<circle cx="123.5" cy="876.5" r="606.5" stroke="#7B7B7B" stroke-width="6"/>
<circle cx="123.5" cy="876.5" r="699.5" stroke="#7B7B7B" stroke-width="6"/>
<circle cx="123.5" cy="876.5" r="743.5" stroke="#7B7B7B" stroke-width="6"/>
<rect x="61" y="180" width="332" height="151" rx="31" stroke="#404040" stroke-width="6"/>
<path d="M372.5 178.5L354.942 193.502L376.713 201.207L372.5 178.5ZM127.885 875.667L368.38 196.136L364.609 194.801L124.115 874.333L127.885 875.667Z" fill="#0EC511"/>
<rect x="323.03" y="199.847" width="45" height="15" transform="rotate(15 323.03 199.847)" fill="#D93939"/>
<rect x="300.385" y="289.017" width="45" height="15" transform="rotate(15 300.385 289.017)" fill="#D93939"/>
<rect x="100" y="204" width="45" height="15" fill="#D93939"/>
<rect x="100" y="296" width="45" height="15" fill="#D93939"/>
<path d="M123.5 219V296" stroke="black" stroke-width="4"/>
<path d="M123 258L334 258" stroke="black" stroke-width="4"/>
<path d="M343.929 221L324 295.376" stroke="black" stroke-width="4"/>
<path d="M548.26 486L554.52 500H538.82L545.06 486H548.26ZM542.46 498.88L541.66 497.36H551.6L550.78 498.88L546 487.56H547.28L542.46 498.88ZM556.393 500V487.2L557.793 488.6H553.593V486H559.633V500H556.393Z" fill="#D93939"/>
<path d="M648.26 378L654.52 392H638.82L645.06 378H648.26ZM642.46 390.88L641.66 389.36H651.6L650.78 390.88L646 379.56H647.28L642.46 390.88ZM654.972 392V389.9L660.373 384.8C660.799 384.413 661.113 384.067 661.313 383.76C661.513 383.453 661.646 383.173 661.713 382.92C661.793 382.667 661.833 382.433 661.833 382.22C661.833 381.66 661.639 381.233 661.253 380.94C660.879 380.633 660.326 380.48 659.592 380.48C659.006 380.48 658.459 380.593 657.953 380.82C657.459 381.047 657.039 381.4 656.693 381.88L654.333 380.36C654.866 379.56 655.613 378.927 656.573 378.46C657.533 377.993 658.639 377.76 659.893 377.76C660.933 377.76 661.839 377.933 662.613 378.28C663.399 378.613 664.006 379.087 664.433 379.7C664.873 380.313 665.093 381.047 665.093 381.9C665.093 382.353 665.033 382.807 664.913 383.26C664.806 383.7 664.579 384.167 664.233 384.66C663.899 385.153 663.406 385.707 662.753 386.32L658.273 390.54L657.653 389.36H665.553V392H654.972Z" fill="#D93939"/>
<path d="M592.74 435V421H599.26C600.887 421 602.153 421.313 603.06 421.94C603.967 422.567 604.42 423.46 604.42 424.62C604.42 425.767 603.993 426.66 603.14 427.3C602.287 427.927 601.153 428.24 599.74 428.24L600.12 427.4C601.693 427.4 602.913 427.713 603.78 428.34C604.647 428.967 605.08 429.873 605.08 431.06C605.08 432.287 604.613 433.253 603.68 433.96C602.76 434.653 601.413 435 599.64 435H592.74ZM595.96 432.6H599.52C600.267 432.6 600.833 432.453 601.22 432.16C601.607 431.867 601.8 431.413 601.8 430.8C601.8 430.213 601.607 429.78 601.22 429.5C600.833 429.207 600.267 429.06 599.52 429.06H595.96V432.6ZM595.96 426.8H598.98C599.687 426.8 600.22 426.66 600.58 426.38C600.94 426.087 601.12 425.66 601.12 425.1C601.12 424.54 600.94 424.12 600.58 423.84C600.22 423.547 599.687 423.4 598.98 423.4H595.96V426.8ZM607.402 435V424.24H618.102V435H614.982V426.1L615.682 426.8H609.802L610.502 426.1V435H607.402Z" fill="#6B00C9"/>
<path d="M628.74 493V479H635.26C636.887 479 638.153 479.313 639.06 479.94C639.967 480.567 640.42 481.46 640.42 482.62C640.42 483.767 639.993 484.66 639.14 485.3C638.287 485.927 637.153 486.24 635.74 486.24L636.12 485.4C637.693 485.4 638.913 485.713 639.78 486.34C640.647 486.967 641.08 487.873 641.08 489.06C641.08 490.287 640.613 491.253 639.68 491.96C638.76 492.653 637.413 493 635.64 493H628.74ZM631.96 490.6H635.52C636.267 490.6 636.833 490.453 637.22 490.16C637.607 489.867 637.8 489.413 637.8 488.8C637.8 488.213 637.607 487.78 637.22 487.5C636.833 487.207 636.267 487.06 635.52 487.06H631.96V490.6ZM631.96 484.8H634.98C635.687 484.8 636.22 484.66 636.58 484.38C636.94 484.087 637.12 483.66 637.12 483.1C637.12 482.54 636.94 482.12 636.58 481.84C636.22 481.547 635.687 481.4 634.98 481.4H631.96V484.8ZM643.402 493V482.24H652.022V484.8H645.802L646.502 484.12V493H643.402ZM660.116 493V490.9L659.916 490.44V486.68C659.916 486.013 659.709 485.493 659.296 485.12C658.896 484.747 658.276 484.56 657.436 484.56C656.862 484.56 656.296 484.653 655.736 484.84C655.189 485.013 654.722 485.253 654.336 485.56L653.216 483.38C653.802 482.967 654.509 482.647 655.336 482.42C656.162 482.193 657.002 482.08 657.856 482.08C659.496 482.08 660.769 482.467 661.676 483.24C662.582 484.013 663.036 485.22 663.036 486.86V493H660.116ZM656.836 493.16C655.996 493.16 655.276 493.02 654.676 492.74C654.076 492.447 653.616 492.053 653.296 491.56C652.976 491.067 652.816 490.513 652.816 489.9C652.816 489.26 652.969 488.7 653.276 488.22C653.596 487.74 654.096 487.367 654.776 487.1C655.456 486.82 656.342 486.68 657.436 486.68H660.296V488.5H657.776C657.042 488.5 656.536 488.62 656.256 488.86C655.989 489.1 655.856 489.4 655.856 489.76C655.856 490.16 656.009 490.48 656.316 490.72C656.636 490.947 657.069 491.06 657.616 491.06C658.136 491.06 658.602 490.94 659.016 490.7C659.429 490.447 659.729 490.08 659.916 489.6L660.396 491.04C660.169 491.733 659.756 492.26 659.156 492.62C658.556 492.98 657.782 493.16 656.836 493.16ZM671.086 493.24C670.206 493.24 669.406 493.113 668.686 492.86C667.966 492.593 667.339 492.187 666.806 491.64C666.286 491.08 665.879 490.367 665.586 489.5C665.306 488.633 665.166 487.6 665.166 486.4C665.166 485.547 665.239 484.767 665.386 484.06C665.533 483.353 665.753 482.713 666.046 482.14C666.339 481.553 666.713 481.04 667.166 480.6C667.633 480.147 668.173 479.773 668.786 479.48C669.413 479.173 670.119 478.94 670.906 478.78L676.026 477.76L676.446 480.44L671.926 481.34C671.659 481.393 671.353 481.467 671.006 481.56C670.673 481.64 670.333 481.767 669.986 481.94C669.653 482.113 669.339 482.36 669.046 482.68C668.766 482.987 668.539 483.393 668.366 483.9C668.193 484.393 668.106 485.007 668.106 485.74C668.106 485.967 668.113 486.14 668.126 486.26C668.153 486.38 668.173 486.507 668.186 486.64C668.213 486.773 668.226 486.98 668.226 487.26L667.226 486.28C667.519 485.653 667.893 485.12 668.346 484.68C668.813 484.24 669.346 483.907 669.946 483.68C670.559 483.44 671.239 483.32 671.986 483.32C672.999 483.32 673.886 483.527 674.646 483.94C675.419 484.34 676.019 484.907 676.446 485.64C676.873 486.373 677.086 487.207 677.086 488.14C677.086 489.153 676.833 490.047 676.326 490.82C675.819 491.58 675.113 492.173 674.206 492.6C673.313 493.027 672.273 493.24 671.086 493.24ZM671.246 490.82C671.766 490.82 672.226 490.707 672.626 490.48C673.026 490.24 673.333 489.927 673.546 489.54C673.773 489.14 673.886 488.693 673.886 488.2C673.886 487.72 673.773 487.293 673.546 486.92C673.333 486.547 673.026 486.253 672.626 486.04C672.226 485.827 671.759 485.72 671.226 485.72C670.706 485.72 670.239 485.827 669.826 486.04C669.413 486.24 669.093 486.52 668.866 486.88C668.639 487.24 668.526 487.66 668.526 488.14C668.526 488.633 668.639 489.087 668.866 489.5C669.106 489.9 669.426 490.22 669.826 490.46C670.239 490.7 670.713 490.82 671.246 490.82Z" fill="#FF4CF0"/>
<path d="M627 495.5H677.706V496.5H627V495.5Z" fill="#FF4CF0"/>
<path d="M135.66 416V402H141.72C142.973 402 144.053 402.207 144.96 402.62C145.867 403.02 146.567 403.6 147.06 404.36C147.553 405.12 147.8 406.027 147.8 407.08C147.8 408.12 147.553 409.02 147.06 409.78C146.567 410.527 145.867 411.1 144.96 411.5C144.053 411.9 142.973 412.1 141.72 412.1H137.46L138.9 410.68V416H135.66ZM144.56 416L141.06 410.92H144.52L148.06 416H144.56ZM138.9 411.04L137.46 409.52H141.54C142.54 409.52 143.287 409.307 143.78 408.88C144.273 408.44 144.52 407.84 144.52 407.08C144.52 406.307 144.273 405.707 143.78 405.28C143.287 404.853 142.54 404.64 141.54 404.64H137.46L138.9 403.1V411.04ZM150.207 416V405.24H158.827V407.8H152.607L153.307 407.12V416H150.207ZM166.92 416V413.9L166.72 413.44V409.68C166.72 409.013 166.514 408.493 166.1 408.12C165.7 407.747 165.08 407.56 164.24 407.56C163.667 407.56 163.1 407.653 162.54 407.84C161.994 408.013 161.527 408.253 161.14 408.56L160.02 406.38C160.607 405.967 161.314 405.647 162.14 405.42C162.967 405.193 163.807 405.08 164.66 405.08C166.3 405.08 167.574 405.467 168.48 406.24C169.387 407.013 169.84 408.22 169.84 409.86V416H166.92ZM163.64 416.16C162.8 416.16 162.08 416.02 161.48 415.74C160.88 415.447 160.42 415.053 160.1 414.56C159.78 414.067 159.62 413.513 159.62 412.9C159.62 412.26 159.774 411.7 160.08 411.22C160.4 410.74 160.9 410.367 161.58 410.1C162.26 409.82 163.147 409.68 164.24 409.68H167.1V411.5H164.58C163.847 411.5 163.34 411.62 163.06 411.86C162.794 412.1 162.66 412.4 162.66 412.76C162.66 413.16 162.814 413.48 163.12 413.72C163.44 413.947 163.874 414.06 164.42 414.06C164.94 414.06 165.407 413.94 165.82 413.7C166.234 413.447 166.534 413.08 166.72 412.6L167.2 414.04C166.974 414.733 166.56 415.26 165.96 415.62C165.36 415.98 164.587 416.16 163.64 416.16ZM177.891 416.24C177.011 416.24 176.211 416.113 175.491 415.86C174.771 415.593 174.144 415.187 173.611 414.64C173.091 414.08 172.684 413.367 172.391 412.5C172.111 411.633 171.971 410.6 171.971 409.4C171.971 408.547 172.044 407.767 172.191 407.06C172.337 406.353 172.557 405.713 172.851 405.14C173.144 404.553 173.517 404.04 173.971 403.6C174.437 403.147 174.977 402.773 175.591 402.48C176.217 402.173 176.924 401.94 177.711 401.78L182.831 400.76L183.251 403.44L178.731 404.34C178.464 404.393 178.157 404.467 177.811 404.56C177.477 404.64 177.137 404.767 176.791 404.94C176.457 405.113 176.144 405.36 175.851 405.68C175.571 405.987 175.344 406.393 175.171 406.9C174.997 407.393 174.911 408.007 174.911 408.74C174.911 408.967 174.917 409.14 174.931 409.26C174.957 409.38 174.977 409.507 174.991 409.64C175.017 409.773 175.031 409.98 175.031 410.26L174.031 409.28C174.324 408.653 174.697 408.12 175.151 407.68C175.617 407.24 176.151 406.907 176.751 406.68C177.364 406.44 178.044 406.32 178.791 406.32C179.804 406.32 180.691 406.527 181.451 406.94C182.224 407.34 182.824 407.907 183.251 408.64C183.677 409.373 183.891 410.207 183.891 411.14C183.891 412.153 183.637 413.047 183.131 413.82C182.624 414.58 181.917 415.173 181.011 415.6C180.117 416.027 179.077 416.24 177.891 416.24ZM178.051 413.82C178.571 413.82 179.031 413.707 179.431 413.48C179.831 413.24 180.137 412.927 180.351 412.54C180.577 412.14 180.691 411.693 180.691 411.2C180.691 410.72 180.577 410.293 180.351 409.92C180.137 409.547 179.831 409.253 179.431 409.04C179.031 408.827 178.564 408.72 178.031 408.72C177.511 408.72 177.044 408.827 176.631 409.04C176.217 409.24 175.897 409.52 175.671 409.88C175.444 410.24 175.331 410.66 175.331 411.14C175.331 411.633 175.444 412.087 175.671 412.5C175.911 412.9 176.231 413.22 176.631 413.46C177.044 413.7 177.517 413.82 178.051 413.82Z" fill="black"/>
<path d="M205.392 405.08C206.245 405.08 206.999 405.253 207.652 405.6C208.319 405.933 208.839 406.453 209.212 407.16C209.599 407.853 209.792 408.747 209.792 409.84V416H206.672V410.32C206.672 409.453 206.492 408.813 206.132 408.4C205.772 407.987 205.265 407.78 204.612 407.78C204.159 407.78 203.752 407.887 203.392 408.1C203.032 408.3 202.752 408.607 202.552 409.02C202.352 409.433 202.252 409.96 202.252 410.6V416H199.132V410.32C199.132 409.453 198.952 408.813 198.592 408.4C198.245 407.987 197.745 407.78 197.092 407.78C196.639 407.78 196.232 407.887 195.872 408.1C195.512 408.3 195.232 408.607 195.032 409.02C194.832 409.433 194.732 409.96 194.732 410.6V416H191.612V405.24H194.592V408.18L194.032 407.32C194.405 406.587 194.932 406.033 195.612 405.66C196.305 405.273 197.092 405.08 197.972 405.08C198.959 405.08 199.819 405.333 200.552 405.84C201.299 406.333 201.792 407.093 202.032 408.12L200.932 407.82C201.292 406.98 201.865 406.313 202.652 405.82C203.452 405.327 204.365 405.08 205.392 405.08ZM212.588 416V405.24H215.708V416H212.588ZM214.148 403.74C213.575 403.74 213.108 403.573 212.748 403.24C212.388 402.907 212.208 402.493 212.208 402C212.208 401.507 212.388 401.093 212.748 400.76C213.108 400.427 213.575 400.26 214.148 400.26C214.722 400.26 215.188 400.42 215.548 400.74C215.908 401.047 216.088 401.447 216.088 401.94C216.088 402.46 215.908 402.893 215.548 403.24C215.202 403.573 214.735 403.74 214.148 403.74ZM225.144 405.08C225.997 405.08 226.757 405.253 227.424 405.6C228.104 405.933 228.637 406.453 229.024 407.16C229.411 407.853 229.604 408.747 229.604 409.84V416H226.484V410.32C226.484 409.453 226.291 408.813 225.904 408.4C225.531 407.987 224.997 407.78 224.304 407.78C223.811 407.78 223.364 407.887 222.964 408.1C222.577 408.3 222.271 408.613 222.044 409.04C221.831 409.467 221.724 410.013 221.724 410.68V416H218.604V405.24H221.584V408.22L221.024 407.32C221.411 406.6 221.964 406.047 222.684 405.66C223.404 405.273 224.224 405.08 225.144 405.08Z" fill="#0900FF"/>
<path d="M374.66 164V150H380.72C381.973 150 383.053 150.207 383.96 150.62C384.867 151.02 385.567 151.6 386.06 152.36C386.553 153.12 386.8 154.027 386.8 155.08C386.8 156.12 386.553 157.02 386.06 157.78C385.567 158.527 384.867 159.1 383.96 159.5C383.053 159.9 381.973 160.1 380.72 160.1H376.46L377.9 158.68V164H374.66ZM383.56 164L380.06 158.92H383.52L387.06 164H383.56ZM377.9 159.04L376.46 157.52H380.54C381.54 157.52 382.287 157.307 382.78 156.88C383.273 156.44 383.52 155.84 383.52 155.08C383.52 154.307 383.273 153.707 382.78 153.28C382.287 152.853 381.54 152.64 380.54 152.64H376.46L377.9 151.1V159.04ZM389.207 164V153.24H397.827V155.8H391.607L392.307 155.12V164H389.207ZM405.92 164V161.9L405.72 161.44V157.68C405.72 157.013 405.514 156.493 405.1 156.12C404.7 155.747 404.08 155.56 403.24 155.56C402.667 155.56 402.1 155.653 401.54 155.84C400.994 156.013 400.527 156.253 400.14 156.56L399.02 154.38C399.607 153.967 400.314 153.647 401.14 153.42C401.967 153.193 402.807 153.08 403.66 153.08C405.3 153.08 406.574 153.467 407.48 154.24C408.387 155.013 408.84 156.22 408.84 157.86V164H405.92ZM402.64 164.16C401.8 164.16 401.08 164.02 400.48 163.74C399.88 163.447 399.42 163.053 399.1 162.56C398.78 162.067 398.62 161.513 398.62 160.9C398.62 160.26 398.774 159.7 399.08 159.22C399.4 158.74 399.9 158.367 400.58 158.1C401.26 157.82 402.147 157.68 403.24 157.68H406.1V159.5H403.58C402.847 159.5 402.34 159.62 402.06 159.86C401.794 160.1 401.66 160.4 401.66 160.76C401.66 161.16 401.814 161.48 402.12 161.72C402.44 161.947 402.874 162.06 403.42 162.06C403.94 162.06 404.407 161.94 404.82 161.7C405.234 161.447 405.534 161.08 405.72 160.6L406.2 162.04C405.974 162.733 405.56 163.26 404.96 163.62C404.36 163.98 403.587 164.16 402.64 164.16ZM416.891 164.24C416.011 164.24 415.211 164.113 414.491 163.86C413.771 163.593 413.144 163.187 412.611 162.64C412.091 162.08 411.684 161.367 411.391 160.5C411.111 159.633 410.971 158.6 410.971 157.4C410.971 156.547 411.044 155.767 411.191 155.06C411.337 154.353 411.557 153.713 411.851 153.14C412.144 152.553 412.517 152.04 412.971 151.6C413.437 151.147 413.977 150.773 414.591 150.48C415.217 150.173 415.924 149.94 416.711 149.78L421.831 148.76L422.251 151.44L417.731 152.34C417.464 152.393 417.157 152.467 416.811 152.56C416.477 152.64 416.137 152.767 415.791 152.94C415.457 153.113 415.144 153.36 414.851 153.68C414.571 153.987 414.344 154.393 414.171 154.9C413.997 155.393 413.911 156.007 413.911 156.74C413.911 156.967 413.917 157.14 413.931 157.26C413.957 157.38 413.977 157.507 413.991 157.64C414.017 157.773 414.031 157.98 414.031 158.26L413.031 157.28C413.324 156.653 413.697 156.12 414.151 155.68C414.617 155.24 415.151 154.907 415.751 154.68C416.364 154.44 417.044 154.32 417.791 154.32C418.804 154.32 419.691 154.527 420.451 154.94C421.224 155.34 421.824 155.907 422.251 156.64C422.677 157.373 422.891 158.207 422.891 159.14C422.891 160.153 422.637 161.047 422.131 161.82C421.624 162.58 420.917 163.173 420.011 163.6C419.117 164.027 418.077 164.24 416.891 164.24ZM417.051 161.82C417.571 161.82 418.031 161.707 418.431 161.48C418.831 161.24 419.137 160.927 419.351 160.54C419.577 160.14 419.691 159.693 419.691 159.2C419.691 158.72 419.577 158.293 419.351 157.92C419.137 157.547 418.831 157.253 418.431 157.04C418.031 156.827 417.564 156.72 417.031 156.72C416.511 156.72 416.044 156.827 415.631 157.04C415.217 157.24 414.897 157.52 414.671 157.88C414.444 158.24 414.331 158.66 414.331 159.14C414.331 159.633 414.444 160.087 414.671 160.5C414.911 160.9 415.231 161.22 415.631 161.46C416.044 161.7 416.517 161.82 417.051 161.82Z" fill="black"/>
<path d="M444.392 153.08C445.245 153.08 445.999 153.253 446.652 153.6C447.319 153.933 447.839 154.453 448.212 155.16C448.599 155.853 448.792 156.747 448.792 157.84V164H445.672V158.32C445.672 157.453 445.492 156.813 445.132 156.4C444.772 155.987 444.265 155.78 443.612 155.78C443.159 155.78 442.752 155.887 442.392 156.1C442.032 156.3 441.752 156.607 441.552 157.02C441.352 157.433 441.252 157.96 441.252 158.6V164H438.132V158.32C438.132 157.453 437.952 156.813 437.592 156.4C437.245 155.987 436.745 155.78 436.092 155.78C435.639 155.78 435.232 155.887 434.872 156.1C434.512 156.3 434.232 156.607 434.032 157.02C433.832 157.433 433.732 157.96 433.732 158.6V164H430.612V153.24H433.592V156.18L433.032 155.32C433.405 154.587 433.932 154.033 434.612 153.66C435.305 153.273 436.092 153.08 436.972 153.08C437.959 153.08 438.819 153.333 439.552 153.84C440.299 154.333 440.792 155.093 441.032 156.12L439.932 155.82C440.292 154.98 440.865 154.313 441.652 153.82C442.452 153.327 443.365 153.08 444.392 153.08ZM458.188 164V161.9L457.988 161.44V157.68C457.988 157.013 457.782 156.493 457.368 156.12C456.968 155.747 456.348 155.56 455.508 155.56C454.935 155.56 454.368 155.653 453.808 155.84C453.262 156.013 452.795 156.253 452.408 156.56L451.288 154.38C451.875 153.967 452.582 153.647 453.408 153.42C454.235 153.193 455.075 153.08 455.928 153.08C457.568 153.08 458.842 153.467 459.748 154.24C460.655 155.013 461.108 156.22 461.108 157.86V164H458.188ZM454.908 164.16C454.068 164.16 453.348 164.02 452.748 163.74C452.148 163.447 451.688 163.053 451.368 162.56C451.048 162.067 450.888 161.513 450.888 160.9C450.888 160.26 451.042 159.7 451.348 159.22C451.668 158.74 452.168 158.367 452.848 158.1C453.528 157.82 454.415 157.68 455.508 157.68H458.368V159.5H455.848C455.115 159.5 454.608 159.62 454.328 159.86C454.062 160.1 453.928 160.4 453.928 160.76C453.928 161.16 454.082 161.48 454.388 161.72C454.708 161.947 455.142 162.06 455.688 162.06C456.208 162.06 456.675 161.94 457.088 161.7C457.502 161.447 457.802 161.08 457.988 160.6L458.468 162.04C458.242 162.733 457.828 163.26 457.228 163.62C456.628 163.98 455.855 164.16 454.908 164.16ZM462.572 164L467.392 157.68L467.332 159.4L462.712 153.24H466.212L469.132 157.26L467.812 157.3L470.832 153.24H474.152L469.512 159.34V157.66L474.312 164H470.772L467.712 159.72L469.012 159.9L465.972 164H462.572Z" fill="#0EC511"/>
<path d="M480.66 269V255H486.72C487.973 255 489.053 255.207 489.96 255.62C490.867 256.02 491.567 256.6 492.06 257.36C492.553 258.12 492.8 259.027 492.8 260.08C492.8 261.12 492.553 262.02 492.06 262.78C491.567 263.527 490.867 264.1 489.96 264.5C489.053 264.9 487.973 265.1 486.72 265.1H482.46L483.9 263.68V269H480.66ZM489.56 269L486.06 263.92H489.52L493.06 269H489.56ZM483.9 264.04L482.46 262.52H486.54C487.54 262.52 488.287 262.307 488.78 261.88C489.273 261.44 489.52 260.84 489.52 260.08C489.52 259.307 489.273 258.707 488.78 258.28C488.287 257.853 487.54 257.64 486.54 257.64H482.46L483.9 256.1V264.04ZM508.927 258.08C509.78 258.08 510.534 258.253 511.187 258.6C511.854 258.933 512.374 259.453 512.747 260.16C513.134 260.853 513.327 261.747 513.327 262.84V269H510.207V263.32C510.207 262.453 510.027 261.813 509.667 261.4C509.307 260.987 508.8 260.78 508.147 260.78C507.694 260.78 507.287 260.887 506.927 261.1C506.567 261.3 506.287 261.607 506.087 262.02C505.887 262.433 505.787 262.96 505.787 263.6V269H502.667V263.32C502.667 262.453 502.487 261.813 502.127 261.4C501.78 260.987 501.28 260.78 500.627 260.78C500.174 260.78 499.767 260.887 499.407 261.1C499.047 261.3 498.767 261.607 498.567 262.02C498.367 262.433 498.267 262.96 498.267 263.6V269H495.147V258.24H498.127V261.18L497.567 260.32C497.94 259.587 498.467 259.033 499.147 258.66C499.84 258.273 500.627 258.08 501.507 258.08C502.494 258.08 503.354 258.333 504.087 258.84C504.834 259.333 505.327 260.093 505.567 261.12L504.467 260.82C504.827 259.98 505.4 259.313 506.187 258.82C506.987 258.327 507.9 258.08 508.927 258.08ZM516.124 269V258.24H519.244V269H516.124ZM517.684 256.74C517.11 256.74 516.644 256.573 516.284 256.24C515.924 255.907 515.744 255.493 515.744 255C515.744 254.507 515.924 254.093 516.284 253.76C516.644 253.427 517.11 253.26 517.684 253.26C518.257 253.26 518.724 253.42 519.084 253.74C519.444 254.047 519.624 254.447 519.624 254.94C519.624 255.46 519.444 255.893 519.084 256.24C518.737 256.573 518.27 256.74 517.684 256.74ZM528.679 258.08C529.533 258.08 530.293 258.253 530.959 258.6C531.639 258.933 532.173 259.453 532.559 260.16C532.946 260.853 533.139 261.747 533.139 262.84V269H530.019V263.32C530.019 262.453 529.826 261.813 529.439 261.4C529.066 260.987 528.533 260.78 527.839 260.78C527.346 260.78 526.899 260.887 526.499 261.1C526.113 261.3 525.806 261.613 525.579 262.04C525.366 262.467 525.259 263.013 525.259 263.68V269H522.139V258.24H525.119V261.22L524.559 260.32C524.946 259.6 525.499 259.047 526.219 258.66C526.939 258.273 527.759 258.08 528.679 258.08Z" fill="#FF7B00"/>
<path d="M468.66 361V347H474.72C475.973 347 477.053 347.207 477.96 347.62C478.867 348.02 479.567 348.6 480.06 349.36C480.553 350.12 480.8 351.027 480.8 352.08C480.8 353.12 480.553 354.02 480.06 354.78C479.567 355.527 478.867 356.1 477.96 356.5C477.053 356.9 475.973 357.1 474.72 357.1H470.46L471.9 355.68V361H468.66ZM477.56 361L474.06 355.92H477.52L481.06 361H477.56ZM471.9 356.04L470.46 354.52H474.54C475.54 354.52 476.287 354.307 476.78 353.88C477.273 353.44 477.52 352.84 477.52 352.08C477.52 351.307 477.273 350.707 476.78 350.28C476.287 349.853 475.54 349.64 474.54 349.64H470.46L471.9 348.1V356.04ZM496.927 350.08C497.78 350.08 498.534 350.253 499.187 350.6C499.854 350.933 500.374 351.453 500.747 352.16C501.134 352.853 501.327 353.747 501.327 354.84V361H498.207V355.32C498.207 354.453 498.027 353.813 497.667 353.4C497.307 352.987 496.8 352.78 496.147 352.78C495.694 352.78 495.287 352.887 494.927 353.1C494.567 353.3 494.287 353.607 494.087 354.02C493.887 354.433 493.787 354.96 493.787 355.6V361H490.667V355.32C490.667 354.453 490.487 353.813 490.127 353.4C489.78 352.987 489.28 352.78 488.627 352.78C488.174 352.78 487.767 352.887 487.407 353.1C487.047 353.3 486.767 353.607 486.567 354.02C486.367 354.433 486.267 354.96 486.267 355.6V361H483.147V350.24H486.127V353.18L485.567 352.32C485.94 351.587 486.467 351.033 487.147 350.66C487.84 350.273 488.627 350.08 489.507 350.08C490.494 350.08 491.354 350.333 492.087 350.84C492.834 351.333 493.327 352.093 493.567 353.12L492.467 352.82C492.827 351.98 493.4 351.313 494.187 350.82C494.987 350.327 495.9 350.08 496.927 350.08ZM504.124 361V350.24H507.244V361H504.124ZM505.684 348.74C505.11 348.74 504.644 348.573 504.284 348.24C503.924 347.907 503.744 347.493 503.744 347C503.744 346.507 503.924 346.093 504.284 345.76C504.644 345.427 505.11 345.26 505.684 345.26C506.257 345.26 506.724 345.42 507.084 345.74C507.444 346.047 507.624 346.447 507.624 346.94C507.624 347.46 507.444 347.893 507.084 348.24C506.737 348.573 506.27 348.74 505.684 348.74ZM516.679 350.08C517.533 350.08 518.293 350.253 518.959 350.6C519.639 350.933 520.173 351.453 520.559 352.16C520.946 352.853 521.139 353.747 521.139 354.84V361H518.019V355.32C518.019 354.453 517.826 353.813 517.439 353.4C517.066 352.987 516.533 352.78 515.839 352.78C515.346 352.78 514.899 352.887 514.499 353.1C514.113 353.3 513.806 353.613 513.579 354.04C513.366 354.467 513.259 355.013 513.259 355.68V361H510.139V350.24H513.119V353.22L512.559 352.32C512.946 351.6 513.499 351.047 514.219 350.66C514.939 350.273 515.759 350.08 516.679 350.08ZM529.691 361V350.24H535.191C536.538 350.24 537.591 350.487 538.351 350.98C539.111 351.46 539.491 352.14 539.491 353.02C539.491 353.9 539.131 354.593 538.411 355.1C537.705 355.593 536.765 355.84 535.591 355.84L535.911 355.12C537.218 355.12 538.191 355.36 538.831 355.84C539.485 356.32 539.811 357.02 539.811 357.94C539.811 358.887 539.451 359.633 538.731 360.18C538.011 360.727 536.911 361 535.431 361H529.691ZM532.551 358.88H535.171C535.745 358.88 536.171 358.787 536.451 358.6C536.745 358.4 536.891 358.1 536.891 357.7C536.891 357.287 536.758 356.987 536.491 356.8C536.225 356.6 535.805 356.5 535.231 356.5H532.551V358.88ZM532.551 354.66H534.911C535.458 354.66 535.865 354.56 536.131 354.36C536.411 354.16 536.551 353.873 536.551 353.5C536.551 353.113 536.411 352.827 536.131 352.64C535.865 352.453 535.458 352.36 534.911 352.36H532.551V354.66ZM542.133 361V350.24H545.233V354.44H549.913V350.24H553.033V361H549.913V356.98H545.233V361H542.133Z" fill="#00BBFF"/>
<path d="M620.5 380.5L631.654 377.511L623.489 369.346L620.5 380.5ZM647.5 353.5L636.346 356.489L644.511 364.654L647.5 353.5ZM627.571 374.843L641.843 360.571L640.429 359.157L626.157 373.429L627.571 374.843Z" fill="#D93939"/>
<path d="M507 494L523.73 489.517L511.483 477.27L507 494ZM551.5 449.5L534.77 453.983L547.017 466.23L551.5 449.5ZM517.607 485.515L543.015 460.107L540.893 457.985L515.485 483.393L517.607 485.515Z" fill="#D93939"/>
<path d="M551 450L573.307 444.023L556.977 427.693L551 450ZM621 380L598.693 385.977L615.023 402.307L621 380ZM565.142 438.686L609.686 394.142L606.858 391.314L562.314 435.858L565.142 438.686Z" fill="#6B00C9"/>
<path d="M475 274L454.971 285.497L474.942 297.094L475 274ZM127.73 876.004L467.69 290.57L464.231 288.561L124.27 873.996L127.73 876.004Z" fill="#FF7B00"/>
<path d="M472.5 384L451.534 393.683L470.403 406.999L472.5 384ZM127.634 876.153L463.756 399.86L460.487 397.553L124.366 873.847L127.634 876.153Z" fill="#00BBFF"/>
<path d="M126 333.5L114.453 353.5H137.547L126 333.5ZM128 875V351.5H124V875H128Z" fill="#0900FF"/>
<path d="M539 536L561.799 532.318L547.211 514.415L539 536ZM701 404L678.201 407.682L692.789 425.585L701 404ZM554.218 526.18L688.309 416.921L685.782 413.82L551.691 523.079L554.218 526.18Z" fill="#FF4CF0"/>
<circle cx="25.5" cy="25.5" r="25.5" transform="matrix(-1 0 0 1 149 851)" fill="black"/>
<path d="M576.344 70V50.8H581.792L583.28 60.568H583.712L585.176 50.8H590.456V70H586.976V61.864L587.24 54.328H586.808L585.368 63.88H581.456L579.992 54.328H579.56L579.824 61.864V70H576.344ZM602.869 60.664V63.568L599.341 64.096C598.829 64.176 598.429 64.36 598.141 64.648C597.869 64.92 597.733 65.264 597.733 65.68C597.733 66.128 597.877 66.488 598.165 66.76C598.469 67.016 598.901 67.144 599.461 67.144C600.053 67.144 600.581 67.016 601.045 66.76C601.525 66.504 601.901 66.168 602.173 65.752C602.461 65.32 602.605 64.848 602.605 64.336V60.64C602.605 59.824 602.389 59.208 601.957 58.792C601.541 58.36 600.901 58.144 600.037 58.144C599.461 58.144 598.949 58.24 598.501 58.432C598.053 58.624 597.693 58.904 597.421 59.272C597.149 59.624 596.965 60.056 596.869 60.568H593.125C593.237 59.368 593.589 58.336 594.181 57.472C594.773 56.608 595.565 55.944 596.557 55.48C597.565 55.016 598.733 54.784 600.061 54.784C602.109 54.784 603.677 55.264 604.765 56.224C605.853 57.168 606.397 58.544 606.397 60.352V70H602.605V68.536H601.717C601.429 69.128 601.013 69.584 600.469 69.904C599.925 70.208 599.221 70.36 598.357 70.36C597.461 70.36 596.669 70.184 595.981 69.832C595.293 69.464 594.757 68.96 594.373 68.32C593.989 67.664 593.797 66.912 593.797 66.064C593.797 64.768 594.197 63.72 594.997 62.92C595.813 62.12 596.981 61.6 598.501 61.36L602.869 60.664ZM610.745 70V55.24H614.633V61H619.385V55.24H623.273V70H619.385V64.456H614.633V70H610.745ZM630.19 61.072H638.374L637.102 62.512C637.102 61.056 636.846 59.96 636.334 59.224C635.838 58.488 635.078 58.12 634.054 58.12C633.014 58.12 632.222 58.512 631.678 59.296C631.15 60.064 630.886 61.144 630.886 62.536C630.886 64.04 631.15 65.184 631.678 65.968C632.206 66.736 633.03 67.12 634.15 67.12C634.79 67.12 635.35 66.976 635.83 66.688C636.326 66.384 636.75 65.96 637.102 65.416H640.846C640.526 66.488 640.046 67.4 639.406 68.152C638.766 68.904 637.99 69.48 637.078 69.88C636.182 70.264 635.174 70.456 634.054 70.456C632.614 70.456 631.374 70.144 630.334 69.52C629.31 68.896 628.518 67.992 627.958 66.808C627.414 65.624 627.142 64.2 627.142 62.536C627.142 60.952 627.422 59.584 627.982 58.432C628.558 57.264 629.366 56.368 630.406 55.744C631.446 55.104 632.662 54.784 634.054 54.784C635.414 54.784 636.574 55.088 637.534 55.696C638.494 56.304 639.23 57.184 639.742 58.336C640.27 59.472 640.534 60.864 640.534 62.512C640.534 62.768 640.518 63.008 640.486 63.232C640.47 63.456 640.454 63.664 640.438 63.856H630.19V61.072ZM644.715 70V55.24H651.579C653.291 55.24 654.611 55.592 655.539 56.296C656.483 57 656.955 58.008 656.955 59.32C656.955 59.944 656.779 60.504 656.427 61C656.091 61.496 655.619 61.864 655.011 62.104V62.464C655.715 62.704 656.267 63.112 656.667 63.688C657.067 64.248 657.267 64.928 657.267 65.728C657.267 67.088 656.787 68.144 655.827 68.896C654.883 69.632 653.539 70 651.795 70H644.715ZM648.531 66.832H651.819C652.347 66.832 652.755 66.712 653.043 66.472C653.331 66.232 653.475 65.88 653.475 65.416C653.475 64.936 653.331 64.576 653.043 64.336C652.755 64.096 652.347 63.976 651.819 63.976H648.531V66.832ZM648.531 61.216H651.603C652.131 61.216 652.539 61.096 652.827 60.856C653.115 60.616 653.259 60.264 653.259 59.8C653.259 59.352 653.115 59.008 652.827 58.768C652.539 58.528 652.131 58.408 651.603 58.408H648.531V61.216ZM660.967 74.8V55.24H664.855V56.632H665.743C666.031 56.072 666.471 55.64 667.063 55.336C667.655 55.016 668.311 54.856 669.031 54.856C670.215 54.856 671.247 55.176 672.127 55.816C673.007 56.44 673.687 57.336 674.167 58.504C674.647 59.656 674.887 61.024 674.887 62.608C674.887 64.208 674.647 65.592 674.167 66.76C673.687 67.912 673.007 68.808 672.127 69.448C671.247 70.072 670.215 70.384 669.031 70.384C668.311 70.384 667.655 70.224 667.063 69.904C666.471 69.584 666.031 69.152 665.743 68.608H664.855V74.8H660.967ZM667.879 66.928C668.903 66.928 669.703 66.552 670.279 65.8C670.855 65.032 671.143 63.968 671.143 62.608C671.143 61.248 670.855 60.192 670.279 59.44C669.703 58.688 668.903 58.312 667.879 58.312C666.839 58.312 666.031 58.696 665.455 59.464C664.879 60.216 664.591 61.272 664.591 62.632C664.591 63.992 664.879 65.048 665.455 65.8C666.031 66.552 666.839 66.928 667.879 66.928ZM680.604 61.072H688.788L687.516 62.512C687.516 61.056 687.26 59.96 686.748 59.224C686.252 58.488 685.492 58.12 684.468 58.12C683.428 58.12 682.636 58.512 682.092 59.296C681.564 60.064 681.3 61.144 681.3 62.536C681.3 64.04 681.564 65.184 682.092 65.968C682.62 66.736 683.444 67.12 684.564 67.12C685.204 67.12 685.764 66.976 686.244 66.688C686.74 66.384 687.164 65.96 687.516 65.416H691.26C690.94 66.488 690.46 67.4 689.82 68.152C689.18 68.904 688.404 69.48 687.492 69.88C686.596 70.264 685.588 70.456 684.468 70.456C683.028 70.456 681.788 70.144 680.748 69.52C679.724 68.896 678.932 67.992 678.372 66.808C677.828 65.624 677.556 64.2 677.556 62.536C677.556 60.952 677.836 59.584 678.396 58.432C678.972 57.264 679.78 56.368 680.82 55.744C681.86 55.104 683.076 54.784 684.468 54.784C685.828 54.784 686.988 55.088 687.948 55.696C688.908 56.304 689.644 57.184 690.156 58.336C690.684 59.472 690.948 60.864 690.948 62.512C690.948 62.768 690.932 63.008 690.9 63.232C690.884 63.456 690.868 63.664 690.852 63.856H680.604V61.072ZM694.769 70V55.24H698.657V61H703.409V55.24H707.297V70H703.409V64.456H698.657V70H694.769ZM711.574 70V55.24H715.462V61H720.214V55.24H724.102V70H720.214V64.456H715.462V70H711.574ZM734.642 70.456C733.202 70.456 731.954 70.136 730.898 69.496C729.842 68.856 729.026 67.952 728.45 66.784C727.874 65.616 727.586 64.232 727.586 62.632C727.586 61.016 727.874 59.624 728.45 58.456C729.026 57.288 729.842 56.384 730.898 55.744C731.954 55.104 733.202 54.784 734.642 54.784C736.082 54.784 737.33 55.104 738.386 55.744C739.442 56.384 740.258 57.288 740.834 58.456C741.41 59.624 741.698 61.016 741.698 62.632C741.698 64.232 741.41 65.616 740.834 66.784C740.258 67.952 739.442 68.856 738.386 69.496C737.346 70.136 736.098 70.456 734.642 70.456ZM734.642 67C735.698 67 736.514 66.616 737.09 65.848C737.666 65.08 737.954 64.008 737.954 62.632C737.954 61.24 737.666 60.16 737.09 59.392C736.514 58.624 735.698 58.24 734.642 58.24C733.602 58.24 732.786 58.624 732.194 59.392C731.618 60.16 731.33 61.24 731.33 62.632C731.33 64.008 731.618 65.08 732.194 65.848C732.786 66.616 733.602 67 734.642 67ZM751.855 70.456C750.431 70.456 749.183 70.144 748.111 69.52C747.055 68.88 746.239 67.984 745.663 66.832C745.103 65.664 744.823 64.288 744.823 62.704C744.823 61.072 745.111 59.672 745.687 58.504C746.279 57.32 747.111 56.408 748.183 55.768C749.255 55.112 750.519 54.784 751.975 54.784C753.287 54.784 754.423 55.056 755.383 55.6C756.359 56.128 757.127 56.88 757.687 57.856C758.247 58.832 758.551 59.984 758.599 61.312H755.119C754.911 60.336 754.535 59.584 753.991 59.056C753.447 58.512 752.767 58.24 751.951 58.24C750.895 58.24 750.063 58.632 749.455 59.416C748.863 60.184 748.567 61.28 748.567 62.704C748.567 64.064 748.855 65.12 749.431 65.872C750.023 66.624 750.831 67 751.855 67C752.575 67 753.183 66.776 753.679 66.328C754.191 65.88 754.567 65.248 754.807 64.432H758.311C758.215 65.664 757.879 66.736 757.303 67.648C756.743 68.544 755.991 69.24 755.047 69.736C754.119 70.216 753.055 70.456 751.855 70.456ZM766.308 70V58.696H761.484V55.24H775.02V58.696H770.196V70H766.308ZM779.656 70V55.24H783.544V59.752H786.664C788.408 59.752 789.768 60.2 790.744 61.096C791.72 61.992 792.208 63.248 792.208 64.864C792.208 66.496 791.72 67.76 790.744 68.656C789.768 69.552 788.408 70 786.664 70H779.656ZM783.544 66.544H786.376C787.064 66.544 787.584 66.4 787.936 66.112C788.288 65.808 788.464 65.368 788.464 64.792C788.464 64.216 788.288 63.784 787.936 63.496C787.584 63.192 787.064 63.04 786.376 63.04H783.544V66.544ZM816.65 70V54.64H811.202V50.8H826.13V54.64H820.682V70H816.65ZM835.806 70.456C833.406 70.456 831.582 69.608 830.334 67.912C829.086 66.216 828.462 63.712 828.462 60.4C828.462 57.088 829.102 54.584 830.382 52.888C831.662 51.192 833.542 50.344 836.022 50.344C837.414 50.344 838.614 50.632 839.622 51.208C840.63 51.784 841.422 52.624 841.998 53.728C842.59 54.832 842.926 56.168 843.006 57.736H839.31C839.07 56.504 838.678 55.584 838.134 54.976C837.606 54.352 836.902 54.04 836.022 54.04C834.838 54.04 833.958 54.568 833.382 55.624C832.806 56.664 832.518 58.256 832.518 60.4C832.518 62.544 832.79 64.144 833.334 65.2C833.878 66.24 834.702 66.76 835.806 66.76C836.622 66.76 837.286 66.472 837.798 65.896C838.326 65.32 838.71 64.464 838.95 63.328H842.646C842.55 64.832 842.214 66.12 841.638 67.192C841.062 68.248 840.278 69.056 839.286 69.616C838.31 70.176 837.15 70.456 835.806 70.456Z" fill="black"/>
<path d="M507.384 105.2V97.16H508.464C508.64 96.872 508.8 96.552 508.944 96.2C509.088 95.848 509.208 95.424 509.304 94.928C509.416 94.432 509.504 93.816 509.568 93.08C509.648 92.344 509.72 91.464 509.784 90.44C509.848 89.4 509.896 88.168 509.928 86.744C509.976 85.32 510.016 83.672 510.048 81.8H521.472V97.16H523.416V105.2H519.552V101H511.248V105.2H507.384ZM512.592 97.16H517.416V85.64H513.864C513.832 87.288 513.784 88.696 513.72 89.864C513.656 91.016 513.584 91.992 513.504 92.792C513.44 93.592 513.36 94.256 513.264 94.784C513.168 95.312 513.064 95.76 512.952 96.128C512.84 96.496 512.72 96.84 512.592 97.16ZM525.701 101V86.24H529.277V93.176L529.109 97.616H529.541L532.949 86.24H538.709V101H535.133V94.064L535.301 89.624H534.869L531.461 101H525.701ZM542.745 101V86.24H546.633V92H551.385V86.24H555.273V101H551.385V95.456H546.633V101H542.745ZM568.478 91.664V94.568L564.95 95.096C564.438 95.176 564.038 95.36 563.75 95.648C563.478 95.92 563.342 96.264 563.342 96.68C563.342 97.128 563.486 97.488 563.774 97.76C564.078 98.016 564.51 98.144 565.07 98.144C565.662 98.144 566.19 98.016 566.654 97.76C567.134 97.504 567.51 97.168 567.782 96.752C568.07 96.32 568.214 95.848 568.214 95.336V91.64C568.214 90.824 567.998 90.208 567.566 89.792C567.15 89.36 566.51 89.144 565.646 89.144C565.07 89.144 564.558 89.24 564.11 89.432C563.662 89.624 563.302 89.904 563.03 90.272C562.758 90.624 562.574 91.056 562.478 91.568H558.734C558.846 90.368 559.198 89.336 559.79 88.472C560.382 87.608 561.174 86.944 562.166 86.48C563.174 86.016 564.342 85.784 565.67 85.784C567.718 85.784 569.286 86.264 570.374 87.224C571.462 88.168 572.006 89.544 572.006 91.352V101H568.214V99.536H567.326C567.038 100.128 566.622 100.584 566.078 100.904C565.534 101.208 564.83 101.36 563.966 101.36C563.07 101.36 562.278 101.184 561.59 100.832C560.902 100.464 560.366 99.96 559.982 99.32C559.598 98.664 559.406 97.912 559.406 97.064C559.406 95.768 559.806 94.72 560.606 93.92C561.422 93.12 562.59 92.6 564.11 92.36L568.478 91.664ZM575.611 101V86.24H581.035L582.499 95.048H582.931L584.371 86.24H589.627V101H586.171V97.304L586.435 89.768H586.003L584.563 98.36H580.675L579.235 89.768H578.803L579.067 97.304V101H575.611ZM592.919 101V86.24H596.495V93.176L596.327 97.616H596.759L600.167 86.24H605.927V101H602.351V94.064L602.519 89.624H602.087L598.679 101H592.919ZM618.172 101V96.104C617.74 96.248 617.268 96.36 616.756 96.44C616.26 96.504 615.692 96.536 615.052 96.536C613.244 96.536 611.868 96.08 610.924 95.168C609.996 94.24 609.532 92.896 609.532 91.136V86.24H613.42V90.776C613.42 91.56 613.612 92.144 613.996 92.528C614.396 92.912 614.996 93.104 615.796 93.104C616.308 93.104 616.756 93.072 617.14 93.008C617.524 92.928 617.868 92.816 618.172 92.672V86.24H622.06V101H618.172ZM629.409 92.072H637.593L636.321 93.512C636.321 92.056 636.065 90.96 635.553 90.224C635.057 89.488 634.297 89.12 633.273 89.12C632.233 89.12 631.441 89.512 630.897 90.296C630.369 91.064 630.105 92.144 630.105 93.536C630.105 95.04 630.369 96.184 630.897 96.968C631.425 97.736 632.249 98.12 633.369 98.12C634.009 98.12 634.569 97.976 635.049 97.688C635.545 97.384 635.969 96.96 636.321 96.416H640.065C639.745 97.488 639.265 98.4 638.625 99.152C637.985 99.904 637.209 100.48 636.297 100.88C635.401 101.264 634.393 101.456 633.273 101.456C631.833 101.456 630.593 101.144 629.553 100.52C628.529 99.896 627.737 98.992 627.177 97.808C626.633 96.624 626.361 95.2 626.361 93.536C626.361 91.952 626.641 90.584 627.201 89.432C627.777 88.264 628.585 87.368 629.625 86.744C630.665 86.104 631.881 85.784 633.273 85.784C634.633 85.784 635.793 86.088 636.753 86.696C637.713 87.304 638.449 88.184 638.961 89.336C639.489 90.472 639.753 91.864 639.753 93.512C639.753 93.768 639.737 94.008 639.705 94.232C639.689 94.456 639.673 94.664 639.657 94.856H629.409V92.072ZM650.246 101.456C648.822 101.456 647.574 101.144 646.502 100.52C645.446 99.88 644.63 98.984 644.054 97.832C643.494 96.664 643.214 95.288 643.214 93.704C643.214 92.072 643.502 90.672 644.078 89.504C644.67 88.32 645.502 87.408 646.574 86.768C647.646 86.112 648.91 85.784 650.366 85.784C651.678 85.784 652.814 86.056 653.773 86.6C654.75 87.128 655.518 87.88 656.078 88.856C656.638 89.832 656.942 90.984 656.99 92.312H653.51C653.302 91.336 652.926 90.584 652.382 90.056C651.838 89.512 651.158 89.24 650.342 89.24C649.286 89.24 648.454 89.632 647.846 90.416C647.254 91.184 646.958 92.28 646.958 93.704C646.958 95.064 647.246 96.12 647.822 96.872C648.414 97.624 649.222 98 650.246 98C650.966 98 651.574 97.776 652.07 97.328C652.582 96.88 652.958 96.248 653.198 95.432H656.702C656.606 96.664 656.27 97.736 655.694 98.648C655.134 99.544 654.382 100.24 653.438 100.736C652.51 101.216 651.446 101.456 650.246 101.456ZM669.354 101L663.954 93.848L669.714 86.24H674.01L668.37 93.632L673.914 101H669.354ZM660.978 101V86.24H664.866V101H660.978ZM676.943 101V86.24H680.519V93.176L680.351 97.616H680.783L684.191 86.24H689.951V101H686.375V94.064L686.543 89.624H686.111L682.703 101H676.943ZM693.748 101V86.24H697.324V93.176L697.156 97.616H697.588L700.996 86.24H706.756V101H703.18V94.064L703.348 89.624H702.916L699.508 101H693.748ZM698.836 80.696C698.9 81.208 699.044 81.584 699.268 81.824C699.492 82.064 699.804 82.184 700.204 82.184C700.62 82.184 700.932 82.064 701.14 81.824C701.364 81.584 701.508 81.208 701.572 80.696H704.836C704.708 82.04 704.268 83.024 703.516 83.648C702.78 84.272 701.676 84.584 700.204 84.584C698.732 84.584 697.62 84.272 696.868 83.648C696.132 83.024 695.7 82.04 695.572 80.696H698.836ZM729.589 101V86.24H740.413V89.696H733.477V101H729.589ZM753.33 91.664V94.568L749.802 95.096C749.29 95.176 748.89 95.36 748.602 95.648C748.33 95.92 748.194 96.264 748.194 96.68C748.194 97.128 748.338 97.488 748.626 97.76C748.93 98.016 749.362 98.144 749.922 98.144C750.514 98.144 751.042 98.016 751.506 97.76C751.986 97.504 752.362 97.168 752.634 96.752C752.922 96.32 753.066 95.848 753.066 95.336V91.64C753.066 90.824 752.85 90.208 752.418 89.792C752.002 89.36 751.362 89.144 750.498 89.144C749.922 89.144 749.41 89.24 748.962 89.432C748.514 89.624 748.154 89.904 747.882 90.272C747.61 90.624 747.426 91.056 747.33 91.568H743.586C743.698 90.368 744.05 89.336 744.642 88.472C745.234 87.608 746.026 86.944 747.018 86.48C748.026 86.016 749.194 85.784 750.522 85.784C752.57 85.784 754.138 86.264 755.226 87.224C756.314 88.168 756.858 89.544 756.858 91.352V101H753.066V99.536H752.178C751.89 100.128 751.474 100.584 750.93 100.904C750.386 101.208 749.682 101.36 748.818 101.36C747.922 101.36 747.13 101.184 746.442 100.832C745.754 100.464 745.218 99.96 744.834 99.32C744.45 98.664 744.258 97.912 744.258 97.064C744.258 95.768 744.658 94.72 745.458 93.92C746.274 93.12 747.442 92.6 748.962 92.36L753.33 91.664ZM767.566 101.456C765.262 101.456 763.494 100.68 762.262 99.128C761.03 97.56 760.414 95.328 760.414 92.432C760.414 88.8 761.014 86.088 762.214 84.296C763.43 82.504 765.294 81.52 767.806 81.344L769.534 81.248C769.886 81.232 770.134 81.16 770.278 81.032C770.422 80.888 770.502 80.648 770.518 80.312H774.142C774.094 81.448 773.934 82.32 773.662 82.928C773.39 83.536 772.95 83.968 772.342 84.224C771.75 84.464 770.95 84.616 769.942 84.68L767.926 84.8C766.806 84.864 765.934 85.224 765.31 85.88C764.702 86.52 764.294 87.512 764.086 88.856H764.494C764.878 88.296 765.406 87.864 766.078 87.56C766.766 87.24 767.518 87.08 768.334 87.08C769.582 87.08 770.67 87.368 771.598 87.944C772.542 88.52 773.262 89.328 773.758 90.368C774.27 91.408 774.526 92.64 774.526 94.064C774.526 95.568 774.238 96.872 773.662 97.976C773.102 99.08 772.302 99.936 771.262 100.544C770.222 101.152 768.99 101.456 767.566 101.456ZM767.542 98C768.566 98 769.358 97.656 769.918 96.968C770.494 96.28 770.782 95.32 770.782 94.088C770.782 92.856 770.494 91.896 769.918 91.208C769.358 90.52 768.566 90.176 767.542 90.176C766.534 90.176 765.742 90.52 765.166 91.208C764.606 91.896 764.326 92.856 764.326 94.088C764.326 95.32 764.606 96.28 765.166 96.968C765.742 97.656 766.534 98 767.542 98ZM786.939 91.664V94.568L783.411 95.096C782.899 95.176 782.499 95.36 782.211 95.648C781.939 95.92 781.803 96.264 781.803 96.68C781.803 97.128 781.947 97.488 782.235 97.76C782.539 98.016 782.971 98.144 783.531 98.144C784.123 98.144 784.651 98.016 785.115 97.76C785.595 97.504 785.971 97.168 786.243 96.752C786.531 96.32 786.675 95.848 786.675 95.336V91.64C786.675 90.824 786.459 90.208 786.027 89.792C785.611 89.36 784.971 89.144 784.107 89.144C783.531 89.144 783.019 89.24 782.571 89.432C782.123 89.624 781.763 89.904 781.491 90.272C781.219 90.624 781.035 91.056 780.939 91.568H777.195C777.307 90.368 777.659 89.336 778.251 88.472C778.843 87.608 779.635 86.944 780.627 86.48C781.635 86.016 782.803 85.784 784.131 85.784C786.179 85.784 787.747 86.264 788.835 87.224C789.923 88.168 790.467 89.544 790.467 91.352V101H786.675V99.536H785.787C785.499 100.128 785.083 100.584 784.539 100.904C783.995 101.208 783.291 101.36 782.427 101.36C781.531 101.36 780.739 101.184 780.051 100.832C779.363 100.464 778.827 99.96 778.443 99.32C778.059 98.664 777.867 97.912 777.867 97.064C777.867 95.768 778.267 94.72 779.067 93.92C779.883 93.12 781.051 92.6 782.571 92.36L786.939 91.664ZM794.624 105.8V86.24H798.512V87.632H799.4C799.688 87.072 800.128 86.64 800.72 86.336C801.312 86.016 801.968 85.856 802.688 85.856C803.872 85.856 804.904 86.176 805.784 86.816C806.664 87.44 807.344 88.336 807.824 89.504C808.304 90.656 808.544 92.024 808.544 93.608C808.544 95.208 808.304 96.592 807.824 97.76C807.344 98.912 806.664 99.808 805.784 100.448C804.904 101.072 803.872 101.384 802.688 101.384C801.968 101.384 801.312 101.224 800.72 100.904C800.128 100.584 799.688 100.152 799.4 99.608H798.512V105.8H794.624ZM801.536 97.928C802.56 97.928 803.36 97.552 803.936 96.8C804.512 96.032 804.8 94.968 804.8 93.608C804.8 92.248 804.512 91.192 803.936 90.44C803.36 89.688 802.56 89.312 801.536 89.312C800.496 89.312 799.688 89.696 799.112 90.464C798.536 91.216 798.248 92.272 798.248 93.632C798.248 94.992 798.536 96.048 799.112 96.8C799.688 97.552 800.496 97.928 801.536 97.928ZM811.38 101V86.24H814.956V93.176L814.788 97.616H815.22L818.628 86.24H824.388V101H820.812V94.064L820.98 89.624H820.548L817.14 101H811.38ZM832.745 101V89.696H827.921V86.24H841.457V89.696H836.633V101H832.745Z" fill="#FF4CF0"/>
<rect x="6" y="6" width="858" height="858" stroke="black" stroke-width="12"/>
</g>
<defs>
<clipPath id="clip0_27_2">
<rect width="870" height="870" fill="white"/>
</clipPath>
</defs>
</svg>
